<?xml version="1.0" encoding="UTF-8"?>
<svg id="Layer_1" data-name="Layer 1" xmlns="http://www.w3.org/2000/svg" viewBox="0 0 500 500">
  <defs>
    <style>
      .cls-1 {
        fill: none;
        stroke: #ff8fd1;
        stroke-miterlimit: 10;
        stroke-width: 40px;
      }

      .cls-2, .cls-3 {
        fill: #ff8fd1;
      }

      .cls-3 {
        opacity: .3;
      }
    </style>
  </defs>
  <rect class="cls-3" x="9.25" y="9.25" width="481.5" height="481.5" rx="44.63" ry="44.63"/>
  <rect class="cls-1" x="25" y="25" width="451" height="451" rx="23.45" ry="23.45"/>
  <g>
    <path class="cls-2" d="M169.6,315.8c-11.67-6.8-20.93-16.03-27.8-27.7-6.87-11.67-10.3-24.43-10.3-38.3s3.43-26.4,10.3-38c6.87-11.6,16.13-20.8,27.8-27.6,11.67-6.8,24.43-10.2,38.3-10.2s26.43,3.4,38.1,10.2c11.67,6.8,20.93,16,27.8,27.6,6.87,11.6,10.3,24.27,10.3,38s-3.43,26.63-10.3,38.3c-6.87,11.67-16.13,20.9-27.8,27.7-11.67,6.8-24.37,10.2-38.1,10.2s-26.63-3.4-38.3-10.2ZM226.7,283.9c5.73-3.53,10.27-8.3,13.6-14.3,3.33-6,5-12.6,5-19.8s-1.67-13.57-5-19.5c-3.33-5.93-7.87-10.67-13.6-14.2-5.73-3.53-12-5.3-18.8-5.3s-13.3,1.77-19.1,5.3c-5.8,3.53-10.4,8.27-13.8,14.2-3.4,5.93-5.1,12.43-5.1,19.5s1.7,13.8,5.1,19.8c3.4,6,8,10.77,13.8,14.3,5.8,3.53,12.17,5.3,19.1,5.3s13.07-1.77,18.8-5.3Z"/>
    <path class="cls-2" d="M297.1,216.8h32v20.4l6.8-2.8v88.8h-38.8v-106.4ZM321.5,247.4c3.33-8.93,8.37-16.27,15.1-22,6.73-5.73,14.9-8.6,24.5-8.6h7.4v35.6h-19.4c-3.33,0-6.37,1.33-9.1,4-2.73,2.67-4.1,5.73-4.1,9.2l-19.4,9.2c0-9.33,1.67-18.46,5-27.4Z"/>
  </g>
</svg>