<?xml version="1.0" encoding="UTF-8"?>
<svg id="Layer_1" data-name="Layer 1" xmlns="http://www.w3.org/2000/svg" viewBox="0 0 491 491">
  <defs>
    <style>
      .cls-1 {
        fill: none;
        stroke: #ef4444;
        stroke-miterlimit: 10;
        stroke-width: 40px;
      }

      .cls-2 {
        fill: #fee2e2;
      }

      .cls-3 {
        fill: #ef4444;
      }
    </style>
  </defs>
  <rect class="cls-2" x="4.25" y="4.25" width="481.5" height="481.5" rx="44.63" ry="44.63"/>
  <rect class="cls-1" x="20" y="20" width="451" height="451" rx="23.45" ry="23.45"/>
  <g>
    <path class="cls-3" d="M106.1,172h55.6c9.73,0,18.77,2.43,27.1,7.3,8.33,4.87,14.93,11.47,19.8,19.8,4.87,8.33,7.3,17.37,7.3,27.1s-2.4,18.27-7.2,25.6c-4.8,7.33-11.33,13-19.6,17-8.27,4-17.4,6-27.4,6h-16.8v43.2h-38.8v-146ZM168.9,280.3c-1.07-1.53-2.67-2.8-4.8-3.8-2.13-1-5.07-1.5-8.8-1.5h-16.4v-18h28c8.13,0,14.57.5,19.3,1.5,4.73,1,8.93,3.23,12.6,6.7,3.67,3.47,6.96,8.87,9.9,16.2l15,36.6h-38.4l-13-31c-1.2-2.93-2.33-5.17-3.4-6.7ZM171.7,239.4c3.6-3.73,5.4-8.13,5.4-13.2s-1.8-9.27-5.4-13c-3.6-3.73-7.8-5.6-12.6-5.6h-14.2v37.4h14.2c4.8,0,9-1.87,12.6-5.6Z"/>
    <path class="cls-3" d="M232.7,211.6h32v17.8h6.8v88.6h-38.8v-106.4ZM286.3,249.6c-1.73-1.73-3.8-2.6-6.2-2.6-2.27,0-4.27.87-6,2.6-1.73,1.73-2.6,3.73-2.6,6l-19.4-.6c0-7.6,1.33-14.93,4-22,2.67-7.07,6.67-12.9,12-17.5,5.33-4.6,11.87-6.9,19.6-6.9s14.63,2.04,20.7,6.1c6.07,4.07,10.8,9.57,14.2,16.5,3.4,6.93,5.1,14.47,5.1,22.6v64.2h-38.8v-62.4c0-2.27-.87-4.27-2.6-6ZM342.5,249.6c-1.73-1.73-3.8-2.6-6.2-2.6-2.27,0-4.27.87-6,2.6s-2.6,3.73-2.6,6l-19.4-.6c0-7.6,1.33-14.93,4-22,2.67-7.07,6.67-12.9,12-17.5,5.33-4.6,11.87-6.9,19.6-6.9s14.63,2.04,20.7,6.1c6.07,4.07,10.8,9.57,14.2,16.5,3.4,6.93,5.1,14.47,5.1,22.6v64.2h-38.8v-62.4c0-2.27-.87-4.27-2.6-6Z"/>
  </g>
</svg>